<svg id="Capa_1" enable-background="new 0 0 512 512" height="24" viewBox="0 0 512 512" width="24" xmlns="http://www.w3.org/2000/svg"><g><path d="m386 452h-260c-16.569 0-30 13.431-30 30s13.431 30 30 30h260c16.569 0 30-13.431 30-30s-13.432-30-30-30z"/><path d="m196 197h120c16.569 0 30-13.431 30-30s-13.431-30-30-30h-120c-16.569 0-30 13.431-30 30s13.431 30 30 30z"/><path d="m200 107h112l10.327-25.816c2.229-5.571.922-11.935-3.321-16.177l-18.613-18.613c-2.813-2.814-6.628-4.394-10.606-4.394h-18.787v-27c0-8.284-6.716-15-15-15s-15 6.716-15 15v27h-18.787c-3.978 0-7.794 1.58-10.607 4.393l-18.613 18.613c-4.243 4.243-5.549 10.606-3.321 16.177z"/><path d="m255.393 367.606-65.123-65.123c-7.623 42.082-22.757 82.586-44.815 119.516h221.087c-19.144-32.053-33.069-66.798-41.401-102.93l-48.536 48.536c-5.856 5.859-15.354 5.859-21.212.001z"/><path d="m318.756 283.031c-1.822-14.604-2.756-29.357-2.756-44.183v-11.848h-120v11.849c0 8.69-.328 17.355-.957 25.981l70.957 70.957z"/><path d="m176.606 246.394c-5.857-5.857-15.355-5.857-21.213 0l-120 120c-5.858 5.857-5.858 15.355 0 21.213 2.929 2.928 6.768 4.393 10.607 4.393s7.678-1.465 10.606-4.394l109.394-109.393 24.271 24.271c2.252-12.431 3.848-24.998 4.772-37.654z"/><path d="m466 142h-60c-8.284 0-15 6.716-15 15s6.716 15 15 15h23.787l-111.031 111.031c1.513 12.133 3.647 24.16 6.387 36.039l125.857-125.857v23.787c0 8.284 6.716 15 15 15s15-6.716 15-15v-60c0-8.284-6.716-15-15-15z"/></g></svg>